<svg width="100%" viewBox="0 0 680 416" role="img" xmlns="http://www.w3.org/2000/svg">
<title>System architecture for the cyber telemetry triage pipeline</title>
<desc>A landscape architecture figure: telemetry ingestion, agentic schema interpreter, heterogeneous graph construction, self-supervised representation learning, scoring and clustering, and cluster intelligence, flowing into a prioritized analyst investigation queue with a feedback loop back into clustering.</desc>
<defs>
<marker id="arrow" viewBox="0 0 10 10" refX="8" refY="5" markerWidth="6" markerHeight="6" orient="auto-start-reverse"><path d="M2 1L8 5L2 9" fill="none" stroke="context-stroke" stroke-width="1.6" stroke-linecap="round" stroke-linejoin="round"/></marker>
<linearGradient id="g1" x1="0" y1="0" x2="1" y2="1"><stop offset="0" stop-color="#60a5fa"/><stop offset="1" stop-color="#1d4ed8"/></linearGradient>
<linearGradient id="g2" x1="0" y1="0" x2="1" y2="1"><stop offset="0" stop-color="#a78bfa"/><stop offset="1" stop-color="#6d28d9"/></linearGradient>
<linearGradient id="g3" x1="0" y1="0" x2="1" y2="1"><stop offset="0" stop-color="#2dd4bf"/><stop offset="1" stop-color="#0d9488"/></linearGradient>
<linearGradient id="g4" x1="0" y1="0" x2="1" y2="1"><stop offset="0" stop-color="#818cf8"/><stop offset="1" stop-color="#4338ca"/></linearGradient>
<linearGradient id="g5" x1="0" y1="0" x2="1" y2="1"><stop offset="0" stop-color="#fbbf24"/><stop offset="1" stop-color="#d97706"/></linearGradient>
<linearGradient id="g6" x1="0" y1="0" x2="1" y2="1"><stop offset="0" stop-color="#f472b6"/><stop offset="1" stop-color="#be185d"/></linearGradient>
<linearGradient id="gcheck" x1="0" y1="0" x2="1" y2="1"><stop offset="0" stop-color="#4ade80"/><stop offset="1" stop-color="#15803d"/></linearGradient>
<linearGradient id="gribbon" x1="0" y1="0" x2="1" y2="0"><stop offset="0" stop-color="#d7e7ff"/><stop offset="1" stop-color="#ffe7c4"/></linearGradient>
<linearGradient id="gtitle" x1="0" y1="0" x2="1" y2="0"><stop offset="0" stop-color="#3f6fd0"/><stop offset="1" stop-color="#46aee0"/></linearGradient>
</defs>
<style>
.bg{fill:#ffffff;stroke:#eceae4}
.card{fill:#fbf9f7;stroke:#e7e2da;stroke-width:1}
.ttl{fill:#22416b;font-weight:500}
.sub{fill:#6f6e69}
.tagr{fill:#f1eee8}
.tagt{fill:#5f5e5a}
.flab{fill:#9a9892}
.ar{stroke:#5b5a56}
text{font-family:var(--font-sans)}
@media (prefers-color-scheme:dark){
.bg{fill:#1b1d1f;stroke:#303336}
.card{fill:#26292c;stroke:#3a3e42}
.ttl{fill:#cfe0f5}
.sub{fill:#a8a69d}
.tagr{fill:#34373b}
.tagt{fill:#b9b7ae}
.flab{fill:#8f8d87}
.ar{stroke:#8d8b85}
}
</style>
<rect class="bg" x="2" y="2" width="676" height="412" rx="16"/>
<text x="340" y="33" text-anchor="middle" font-size="18" font-weight="500" fill="url(#gtitle)">Cyber telemetry triage — system architecture</text>
<text class="sub" x="340" y="51" text-anchor="middle" font-size="11">Self-supervised heterogeneous graph learning over endpoint telemetry</text>

<g>
<rect class="card" x="28" y="74" width="192" height="92" rx="12"/>
<rect x="42" y="86" width="30" height="30" rx="8" fill="url(#g1)"/>
<ellipse cx="57" cy="95" rx="9" ry="3.4" fill="none" stroke="#fff" stroke-width="1.5"/>
<path d="M48,95 V107 a9,3.4 0 0 0 18,0 V95" fill="none" stroke="#fff" stroke-width="1.5"/>
<text class="ttl" x="80" y="98" font-size="13">Telemetry<tspan x="80" dy="16">ingestion</tspan></text>
<rect class="tagr" x="42" y="136" width="76" height="18" rx="9"/><text class="tagt" x="80" y="149" text-anchor="middle" font-size="11">ETL adapter</text>
<rect class="tagr" x="122" y="136" width="46" height="18" rx="9"/><text class="tagt" x="145" y="149" text-anchor="middle" font-size="11">ACME4</text>
</g>

<g>
<rect class="card" x="244" y="74" width="192" height="92" rx="12"/>
<rect x="258" y="86" width="30" height="30" rx="8" fill="url(#g2)"/>
<path d="M273,92 L275.5,99.5 L283,101 L275.5,102.5 L273,110 L270.5,102.5 L263,101 L270.5,99.5 Z" fill="#fff"/>
<text class="ttl" x="296" y="98" font-size="13">Agentic schema<tspan x="296" dy="16">interpreter</tspan></text>
<rect class="tagr" x="258" y="136" width="60" height="18" rx="9"/><text class="tagt" x="288" y="149" text-anchor="middle" font-size="11">entities</text>
<rect class="tagr" x="322" y="136" width="74" height="18" rx="9"/><text class="tagt" x="359" y="149" text-anchor="middle" font-size="11">edge types</text>
</g>

<g>
<rect class="card" x="460" y="74" width="192" height="92" rx="12"/>
<rect x="474" y="86" width="30" height="30" rx="8" fill="url(#g3)"/>
<circle cx="489" cy="94" r="2.6" fill="#fff"/><circle cx="482" cy="106" r="2.6" fill="#fff"/><circle cx="496" cy="106" r="2.6" fill="#fff"/>
<path d="M489,94 L482,106 M489,94 L496,106 M482,106 L496,106" stroke="#fff" stroke-width="1.4"/>
<text class="ttl" x="512" y="98" font-size="13">Heterogeneous<tspan x="512" dy="16">graph</tspan></text>
<rect class="tagr" x="474" y="136" width="76" height="18" rx="9"/><text class="tagt" x="512" y="149" text-anchor="middle" font-size="11">typed nodes</text>
<rect class="tagr" x="556" y="136" width="76" height="18" rx="9"/><text class="tagt" x="594" y="149" text-anchor="middle" font-size="11">typed edges</text>
</g>

<g>
<rect class="card" x="460" y="210" width="192" height="92" rx="12"/>
<rect x="474" y="222" width="30" height="30" rx="8" fill="url(#g4)"/>
<circle cx="483" cy="232" r="2.4" fill="#fff"/><circle cx="483" cy="242" r="2.4" fill="#fff"/><circle cx="496" cy="237" r="2.4" fill="#fff"/>
<path d="M483,232 L496,237 M483,242 L496,237" stroke="#fff" stroke-width="1.4"/>
<text class="ttl" x="512" y="234" font-size="13">Representation<tspan x="512" dy="16">learning</tspan></text>
<rect class="tagr" x="474" y="272" width="76" height="18" rx="9"/><text class="tagt" x="512" y="285" text-anchor="middle" font-size="11">HeteroSAGE</text>
<rect class="tagr" x="556" y="272" width="62" height="18" rx="9"/><text class="tagt" x="587" y="285" text-anchor="middle" font-size="11">temporal</text>
</g>

<g>
<rect class="card" x="244" y="210" width="192" height="92" rx="12"/>
<rect x="258" y="222" width="30" height="30" rx="8" fill="url(#g5)"/>
<circle cx="268" cy="233" r="2" fill="#fff"/><circle cx="277" cy="231" r="2" fill="#fff"/><circle cx="279" cy="240" r="2" fill="#fff"/><circle cx="270" cy="242" r="2" fill="#fff"/><circle cx="273" cy="237" r="2" fill="#fff"/>
<text class="ttl" x="296" y="234" font-size="13">Scoring &amp;<tspan x="296" dy="16">clustering</tspan></text>
<rect class="tagr" x="258" y="272" width="34" height="18" rx="9"/><text class="tagt" x="275" y="285" text-anchor="middle" font-size="11">kNN</text>
<rect class="tagr" x="298" y="272" width="42" height="18" rx="9"/><text class="tagt" x="319" y="285" text-anchor="middle" font-size="11">UMAP</text>
</g>

<g>
<rect class="card" x="28" y="210" width="192" height="92" rx="12"/>
<rect x="42" y="222" width="30" height="30" rx="8" fill="url(#g6)"/>
<circle cx="55" cy="235" r="6" fill="none" stroke="#fff" stroke-width="1.6"/>
<path d="M59.5,239.5 L64,244" stroke="#fff" stroke-width="1.8" stroke-linecap="round"/>
<text class="ttl" x="80" y="234" font-size="13">Cluster<tspan x="80" dy="16">intelligence</tspan></text>
<rect class="tagr" x="42" y="272" width="52" height="18" rx="9"/><text class="tagt" x="68" y="285" text-anchor="middle" font-size="11">labels</text>
<rect class="tagr" x="100" y="272" width="58" height="18" rx="9"/><text class="tagt" x="129" y="285" text-anchor="middle" font-size="11">ranking</text>
</g>

<line class="ar" x1="222" y1="120" x2="240" y2="120" marker-end="url(#arrow)"/>
<line class="ar" x1="438" y1="120" x2="456" y2="120" marker-end="url(#arrow)"/>
<line class="ar" x1="556" y1="168" x2="556" y2="206" marker-end="url(#arrow)"/>
<line class="ar" x1="458" y1="256" x2="440" y2="256" marker-end="url(#arrow)"/>
<line class="ar" x1="242" y1="256" x2="224" y2="256" marker-end="url(#arrow)"/>
<line class="ar" x1="124" y1="304" x2="124" y2="334" marker-end="url(#arrow)"/>
<path d="M40,338 L14,338 L14,256 L30,256" fill="none" stroke="#e2674a" stroke-width="1.6" stroke-dasharray="5 4" marker-end="url(#arrow)"/>

<text class="flab" x="566" y="191" font-size="11">typed graph</text>
<text class="flab" x="134" y="323" font-size="11">prioritized clusters</text>

<rect x="28" y="338" width="624" height="46" rx="23" fill="url(#gribbon)"/>
<circle cx="56" cy="361" r="12" fill="url(#gcheck)"/>
<path d="M50,361 L54.5,366 L62,355.5" fill="none" stroke="#fff" stroke-width="2" stroke-linecap="round" stroke-linejoin="round"/>
<text x="352" y="366" text-anchor="middle" font-size="13" font-weight="500" fill="#22416b">Analyst investigation queue — prioritized, explained suspicious clusters</text>
<text x="340" y="402" text-anchor="middle" font-size="11" fill="#e2674a">analyst feedback → recluster · rerank · refine</text>
</svg>